<svg xmlns="http://www.w3.org/2000/svg" xmlns:xlink="http://www.w3.org/1999/xlink" width="40pt" height="40pt" viewBox="0 0 40 40" version="1.1">
    <defs>

    <symbol id="facebook">
      <path style=" stroke:none;fill-rule:nonzero;fill:rgb(18.431373%,18.039216%,25.490196%);fill-opacity:1;" d="M 40 20 C 40 31.046875 31.046875 40 20 40 C 8.953125 40 0 31.046875 0 20 C 0 8.953125 8.953125 0 20 0 C 31.046875 0 40 8.953125 40 20 Z M 40 20 "/>
      <path style=" stroke:none;fill-rule:nonzero;fill:rgb(100%,100%,100%);fill-opacity:1;" d="M 25.027344 20.78125 L 21.460938 20.78125 L 21.460938 33.855469 L 16.050781 33.855469 L 16.050781 20.78125 L 13.480469 20.78125 L 13.480469 16.1875 L 16.050781 16.1875 L 16.050781 13.214844 C 16.050781 11.089844 17.0625 7.757812 21.507812 7.757812 L 25.511719 7.777344 L 25.511719 12.234375 L 22.605469 12.234375 C 22.128906 12.234375 21.460938 12.472656 21.460938 13.488281 L 21.460938 16.191406 L 25.5 16.191406 Z M 25.027344 20.78125 "/>
    </symbol>

    <symbol id="instagram">
      <path style=" stroke:none;fill-rule:nonzero;fill:rgb(18.431373%,18.039216%,25.490196%);fill-opacity:1;" d="M 23.828125 20 C 23.828125 22.113281 22.113281 23.828125 20 23.828125 C 17.886719 23.828125 16.171875 22.113281 16.171875 20 C 16.171875 17.886719 17.886719 16.171875 20 16.171875 C 22.113281 16.171875 23.828125 17.886719 23.828125 20 Z M 23.828125 20 "/>
      <path style=" stroke:none;fill-rule:nonzero;fill:rgb(18.431373%,18.039216%,25.490196%);fill-opacity:1;" d="M 28.953125 13.226562 C 28.769531 12.726562 28.476562 12.277344 28.09375 11.90625 C 27.722656 11.523438 27.273438 11.230469 26.773438 11.046875 C 26.367188 10.890625 25.761719 10.703125 24.640625 10.652344 C 23.429688 10.597656 23.066406 10.585938 20 10.585938 C 16.933594 10.585938 16.570312 10.597656 15.359375 10.652344 C 14.238281 10.703125 13.632812 10.890625 13.226562 11.046875 C 12.726562 11.230469 12.277344 11.523438 11.90625 11.90625 C 11.523438 12.277344 11.230469 12.726562 11.046875 13.226562 C 10.890625 13.632812 10.703125 14.238281 10.652344 15.359375 C 10.597656 16.570312 10.585938 16.933594 10.585938 20 C 10.585938 23.066406 10.597656 23.429688 10.652344 24.640625 C 10.703125 25.761719 10.890625 26.367188 11.046875 26.773438 C 11.230469 27.273438 11.523438 27.722656 11.90625 28.09375 C 12.277344 28.476562 12.726562 28.769531 13.226562 28.953125 C 13.632812 29.109375 14.238281 29.296875 15.359375 29.347656 C 16.570312 29.402344 16.933594 29.414062 20 29.414062 C 23.066406 29.414062 23.429688 29.402344 24.640625 29.347656 C 25.761719 29.296875 26.367188 29.109375 26.773438 28.953125 C 27.773438 28.566406 28.566406 27.773438 28.953125 26.773438 C 29.109375 26.367188 29.296875 25.761719 29.347656 24.640625 C 29.402344 23.429688 29.414062 23.066406 29.414062 20 C 29.414062 16.933594 29.402344 16.570312 29.347656 15.359375 C 29.296875 14.238281 29.109375 13.632812 28.953125 13.226562 Z M 20 25.898438 C 16.742188 25.898438 14.101562 23.257812 14.101562 20 C 14.101562 16.742188 16.742188 14.101562 20 14.101562 C 23.257812 14.101562 25.898438 16.742188 25.898438 20 C 25.898438 23.257812 23.257812 25.898438 20 25.898438 Z M 26.128906 15.246094 C 25.371094 15.246094 24.753906 14.628906 24.753906 13.871094 C 24.753906 13.109375 25.371094 12.492188 26.128906 12.492188 C 26.890625 12.492188 27.507812 13.109375 27.507812 13.871094 C 27.507812 14.628906 26.890625 15.246094 26.128906 15.246094 Z M 26.128906 15.246094 "/>
      <path style=" stroke:none;fill-rule:nonzero;fill:rgb(18.431373%,18.039216%,25.490196%);fill-opacity:1;" d="M 20 0 C 8.957031 0 0 8.957031 0 20 C 0 31.042969 8.957031 40 20 40 C 31.042969 40 40 31.042969 40 20 C 40 8.957031 31.042969 0 20 0 Z M 31.414062 24.734375 C 31.359375 25.957031 31.164062 26.792969 30.882812 27.523438 C 30.285156 29.066406 29.066406 30.285156 27.523438 30.882812 C 26.792969 31.164062 25.957031 31.359375 24.734375 31.414062 C 23.511719 31.472656 23.121094 31.484375 20 31.484375 C 16.882812 31.484375 16.488281 31.472656 15.265625 31.414062 C 14.042969 31.359375 13.207031 31.164062 12.476562 30.882812 C 11.710938 30.59375 11.015625 30.140625 10.445312 29.554688 C 9.859375 28.984375 9.40625 28.289062 9.117188 27.523438 C 8.835938 26.792969 8.640625 25.957031 8.585938 24.734375 C 8.527344 23.511719 8.515625 23.117188 8.515625 20 C 8.515625 16.882812 8.527344 16.488281 8.585938 15.265625 C 8.640625 14.042969 8.835938 13.207031 9.117188 12.476562 C 9.40625 11.710938 9.859375 11.015625 10.445312 10.445312 C 11.015625 9.859375 11.710938 9.40625 12.476562 9.117188 C 13.207031 8.835938 14.042969 8.640625 15.265625 8.585938 C 16.488281 8.527344 16.882812 8.515625 20 8.515625 C 23.117188 8.515625 23.511719 8.527344 24.734375 8.585938 C 25.957031 8.640625 26.792969 8.835938 27.523438 9.117188 C 28.289062 9.40625 28.984375 9.859375 29.558594 10.445312 C 30.140625 11.015625 30.59375 11.710938 30.882812 12.476562 C 31.164062 13.207031 31.359375 14.042969 31.414062 15.265625 C 31.472656 16.488281 31.484375 16.882812 31.484375 20 C 31.484375 23.117188 31.472656 23.511719 31.414062 24.734375 Z M 31.414062 24.734375 "/>
    </symbol>


    <symbol id="twitter">
      <path style=" stroke:none;fill-rule:nonzero;fill:rgb(18.431373%,18.039216%,25.490196%);fill-opacity:1;" d="M 20 0 C 8.957031 0 0 8.957031 0 20 C 0 31.042969 8.957031 40 20 40 C 31.042969 40 40 31.042969 40 20 C 40 8.957031 31.042969 0 20 0 Z M 29.132812 15.59375 C 29.140625 15.789062 29.144531 15.988281 29.144531 16.1875 C 29.144531 22.253906 24.527344 29.246094 16.082031 29.25 L 16.085938 29.25 L 16.082031 29.25 C 13.492188 29.25 11.078125 28.488281 9.046875 27.1875 C 9.40625 27.230469 9.773438 27.25 10.140625 27.25 C 12.292969 27.25 14.273438 26.515625 15.84375 25.285156 C 13.835938 25.246094 12.140625 23.921875 11.554688 22.097656 C 11.835938 22.148438 12.121094 22.179688 12.417969 22.179688 C 12.835938 22.179688 13.242188 22.121094 13.628906 22.015625 C 11.527344 21.597656 9.945312 19.742188 9.945312 17.519531 C 9.945312 17.496094 9.945312 17.476562 9.945312 17.460938 C 10.566406 17.804688 11.273438 18.011719 12.027344 18.03125 C 10.792969 17.210938 9.984375 15.804688 9.984375 14.210938 C 9.984375 13.371094 10.210938 12.582031 10.605469 11.90625 C 12.867188 14.683594 16.25 16.507812 20.066406 16.699219 C 19.988281 16.363281 19.945312 16.015625 19.945312 15.652344 C 19.945312 13.121094 22.003906 11.0625 24.539062 11.0625 C 25.859375 11.0625 27.050781 11.621094 27.890625 12.515625 C 28.933594 12.308594 29.917969 11.925781 30.804688 11.402344 C 30.460938 12.472656 29.734375 13.371094 28.785156 13.941406 C 29.714844 13.828125 30.597656 13.582031 31.421875 13.214844 C 30.808594 14.136719 30.027344 14.945312 29.132812 15.59375 Z M 29.132812 15.59375 "/>
    </symbol>

    </defs>
</svg>
