<svg xmlns="http://www.w3.org/2000/svg" width="27pt" height="27pt" viewBox="0 0 27 27">
    <defs>
        <symbol id="cat_arm">
       <path style=" stroke:none;fill-rule:nonzero;fill:rgb(0%,0%,0%);fill-opacity:1;" d="M 18.054688 14.308594 C 16.839844 12.414062 14.769531 11.28125 12.519531 11.28125 C 10.269531 11.28125 8.199219 12.414062 6.984375 14.308594 L 4.058594 18.875 C 3.570312 19.632812 3.347656 20.507812 3.410156 21.40625 C 3.472656 22.304688 3.8125 23.140625 4.398438 23.828125 C 4.984375 24.511719 5.757812 24.980469 6.632812 25.179688 C 7.511719 25.378906 8.410156 25.292969 9.234375 24.933594 L 9.289062 24.90625 C 11.363281 24.015625 13.734375 24.023438 15.804688 24.933594 C 16.339844 25.167969 16.902344 25.285156 17.472656 25.285156 C 17.785156 25.285156 18.097656 25.25 18.40625 25.179688 C 19.285156 24.980469 20.058594 24.511719 20.640625 23.828125 C 21.226562 23.144531 21.570312 22.304688 21.632812 21.40625 C 21.691406 20.507812 21.46875 19.632812 20.984375 18.875 Z M 18.054688 14.308594 "/>
<path style=" stroke:none;fill-rule:nonzero;fill:rgb(0%,0%,0%);fill-opacity:1;" d="M 4.847656 14.304688 C 5.71875 13.96875 6.378906 13.265625 6.710938 12.328125 C 7.023438 11.433594 6.996094 10.421875 6.636719 9.484375 C 6.273438 8.546875 5.617188 7.777344 4.785156 7.324219 C 3.910156 6.851562 2.945312 6.773438 2.078125 7.109375 C 0.328125 7.78125 -0.472656 9.941406 0.289062 11.925781 C 0.898438 13.507812 2.320312 14.503906 3.753906 14.503906 C 4.121094 14.503906 4.492188 14.441406 4.847656 14.304688 Z M 4.847656 14.304688 "/>
<path style=" stroke:none;fill-rule:nonzero;fill:rgb(0%,0%,0%);fill-opacity:1;" d="M 10.527344 10.726562 C 12.714844 10.726562 14.492188 8.699219 14.492188 6.207031 C 14.492188 3.714844 12.714844 1.6875 10.527344 1.6875 C 8.339844 1.6875 6.5625 3.714844 6.5625 6.207031 C 6.5625 8.699219 8.339844 10.726562 10.527344 10.726562 Z M 10.527344 10.726562 "/>
<path style=" stroke:none;fill-rule:nonzero;fill:rgb(0%,0%,0%);fill-opacity:1;" d="M 17.375 11.835938 C 17.710938 11.945312 18.054688 12 18.398438 12 C 19.992188 12 21.546875 10.839844 22.140625 9.054688 C 22.480469 8.027344 22.457031 6.941406 22.074219 6 C 21.675781 5.011719 20.933594 4.292969 19.988281 3.976562 C 19.042969 3.664062 18.019531 3.792969 17.105469 4.347656 C 16.234375 4.875 15.566406 5.730469 15.226562 6.757812 C 14.503906 8.925781 15.46875 11.203125 17.375 11.835938 Z M 17.375 11.835938 "/>
<path style=" stroke:none;fill-rule:nonzero;fill:rgb(0%,0%,0%);fill-opacity:1;" d="M 25.726562 11.308594 C 24.21875 10.195312 21.964844 10.675781 20.699219 12.382812 C 19.4375 14.09375 19.632812 16.390625 21.140625 17.503906 C 21.6875 17.914062 22.335938 18.105469 23 18.105469 C 24.160156 18.105469 25.363281 17.515625 26.167969 16.429688 C 27.429688 14.722656 27.234375 12.421875 25.726562 11.308594 Z M 25.726562 11.308594 "/>
        </symbol>
    </defs>
</svg>
